<?xml version="1.0" encoding="UTF-8" standalone="no"?>
<!-- Created with Inkscape (http://www.inkscape.org/) -->

<svg
   width="256"
   height="256"
   viewBox="0 0 67.733332 67.733333"
   version="1.1"
   id="svg1"
   inkscape:version="1.3.2 (091e20e, 2023-11-25, custom)"
   sodipodi:docname="KIL_UpgradeButtonReset.svg"
   inkscape:export-filename="KIL_UpgradeButtonReset.png"
   inkscape:export-xdpi="96"
   inkscape:export-ydpi="96"
   xmlns:inkscape="http://www.inkscape.org/namespaces/inkscape"
   xmlns:sodipodi="http://sodipodi.sourceforge.net/DTD/sodipodi-0.dtd"
   xmlns="http://www.w3.org/2000/svg"
   xmlns:svg="http://www.w3.org/2000/svg">
  <sodipodi:namedview
     id="namedview1"
     pagecolor="#ffffff"
     bordercolor="#000000"
     borderopacity="0.25"
     inkscape:showpageshadow="2"
     inkscape:pageopacity="0.0"
     inkscape:pagecheckerboard="0"
     inkscape:deskcolor="#d1d1d1"
     inkscape:document-units="mm"
     inkscape:zoom="2.955623"
     inkscape:cx="158.68059"
     inkscape:cy="145.99291"
     inkscape:window-width="2560"
     inkscape:window-height="1369"
     inkscape:window-x="2552"
     inkscape:window-y="-8"
     inkscape:window-maximized="1"
     inkscape:current-layer="layer1" />
  <defs
     id="defs1">
    <rect
       x="101.50144"
       y="136.01193"
       width="511.90561"
       height="431.04279"
       id="rect1" />
  </defs>
  <g
     inkscape:label="Layer 1"
     inkscape:groupmode="layer"
     id="layer1">
    <g
       id="g1"
       transform="translate(0.89518567,0.85650145)">
      <path
         id="path1-4-4"
         style="fill:#2ab112;fill-opacity:1;stroke:#000000;stroke-width:1.2;stroke-linecap:round;stroke-linejoin:round;stroke-miterlimit:4.2;stroke-dasharray:none;stroke-opacity:1"
         d="m 32.971481,10.966167 -17.037203,11.010697 6.803202,-0.0894 v 23.453865 h 10.083622 0.300757 10.083622 V 21.887463 l 6.803203,0.0894 z" />
      <path
         id="path1-4"
         style="fill:#2ab112;fill-opacity:1;stroke:#000000;stroke-width:1.2;stroke-linecap:round;stroke-linejoin:round;stroke-miterlimit:4.2;stroke-dasharray:none;stroke-opacity:1"
         d="m 32.971481,15.60761 -17.037203,11.010697 6.803202,-0.0894 v 23.453865 h 10.083622 0.300757 10.083622 V 26.528907 l 6.803203,0.0894 z" />
      <path
         id="path1"
         style="fill:#2ab112;fill-opacity:1;stroke:#000000;stroke-width:1.2;stroke-linecap:round;stroke-linejoin:round;stroke-miterlimit:4.2;stroke-dasharray:none;stroke-opacity:1"
         d="m 32.971481,20.67899 -17.037203,11.010697 6.803202,-0.0894 v 23.453865 h 10.083622 0.300757 10.083622 V 31.600287 l 6.803203,0.0894 z" />
    </g>
    <path
       id="path2"
       style="fill:#fd0000;fill-opacity:1;stroke:#000000;stroke-width:1.35274;stroke-linecap:round;stroke-linejoin:round;stroke-miterlimit:4.2"
       d="M 49.532544,18.73238 A 21.782027,21.782027 0 0 0 18.732379,18.200789 21.782027,21.782027 0 0 0 18.200788,49.000953 21.782027,21.782027 0 0 0 49.000952,49.532546 21.782027,21.782027 0 0 0 49.532544,18.73238 Z m -4.129302,3.989183 a 16.040599,16.040599 0 0 1 1.106964,21.006485 L 24.469728,20.913399 a 16.040599,16.040599 0 0 1 20.933514,1.808164 z m -24.157856,1.306766 22.040478,22.81465 A 16.040599,16.040599 0 0 1 22.330091,45.011771 16.040599,16.040599 0 0 1 21.245386,24.028329 Z" />
  </g>
</svg>
